<mxfile host="app.diagrams.net" modified="2024-03-23T17:14:48.838Z" agent="Mozilla/5.0 (Windows NT 10.0; Win64; x64) AppleWebKit/537.36 (KHTML, like Gecko) Chrome/123.0.0.0 Safari/537.36" etag="ECS7oJU51eQd1f59sor8" version="24.0.9" type="github">
  <diagram name="Page-1" id="nF1Mfz96NcXxsn2c-wia">
    <mxGraphModel dx="1674" dy="418" grid="0" gridSize="10" guides="1" tooltips="1" connect="1" arrows="1" fold="1" page="0" pageScale="1" pageWidth="1169" pageHeight="827" math="0" shadow="0">
      <root>
        <mxCell id="0" />
        <mxCell id="1" parent="0" />
        <mxCell id="IkbHQjkbGrgO6srP022f-1" value="" style="shape=note;whiteSpace=wrap;html=1;backgroundOutline=1;darkOpacity=0.05;" parent="1" vertex="1">
          <mxGeometry x="333" y="465" width="116" height="136" as="geometry" />
        </mxCell>
        <mxCell id="IkbHQjkbGrgO6srP022f-6" value="&lt;span style=&quot;color: rgba(0, 0, 0, 0); font-family: monospace; font-size: 0px; text-align: start; text-wrap: nowrap;&quot;&gt;%3CmxGraphModel%3E%3Croot%3E%3CmxCell%20id%3D%220%22%2F%3E%3CmxCell%20id%3D%221%22%20parent%3D%220%22%2F%3E%3CmxCell%20id%3D%222%22%20value%3D%22%22%20style%3D%22shape%3Dcard%3BwhiteSpace%3Dwrap%3Bhtml%3D1%3Bsize%3D12%3B%22%20vertex%3D%221%22%20parent%3D%221%22%3E%3CmxGeometry%20x%3D%22175%22%20y%3D%22548%22%20width%3D%2232%22%20height%3D%2241%22%20as%3D%22geometry%22%2F%3E%3C%2FmxCell%3E%3C%2Froot%3E%3C%2FmxGraphModel%3E&lt;/span&gt;" style="shape=card;whiteSpace=wrap;html=1;size=12;" parent="1" vertex="1">
          <mxGeometry x="344.5" y="491" width="32" height="41" as="geometry" />
        </mxCell>
        <mxCell id="IkbHQjkbGrgO6srP022f-7" value="&lt;span style=&quot;color: rgba(0, 0, 0, 0); font-family: monospace; font-size: 0px; text-align: start; text-wrap: nowrap;&quot;&gt;%3CmxGraphModel%3E%3Croot%3E%3CmxCell%20id%3D%220%22%2F%3E%3CmxCell%20id%3D%221%22%20parent%3D%220%22%2F%3E%3CmxCell%20id%3D%222%22%20value%3D%22%22%20style%3D%22shape%3Dcard%3BwhiteSpace%3Dwrap%3Bhtml%3D1%3Bsize%3D12%3B%22%20vertex%3D%221%22%20parent%3D%221%22%3E%3CmxGeometry%20x%3D%22175%22%20y%3D%22548%22%20width%3D%2232%22%20height%3D%2241%22%20as%3D%22geometry%22%2F%3E%3C%2FmxCell%3E%3C%2Froot%3E%3C%2FmxGraphModel%3E&lt;/span&gt;" style="shape=card;whiteSpace=wrap;html=1;size=12;" parent="1" vertex="1">
          <mxGeometry x="389.5" y="493" width="32" height="41" as="geometry" />
        </mxCell>
        <mxCell id="IkbHQjkbGrgO6srP022f-8" value="&lt;span style=&quot;color: rgba(0, 0, 0, 0); font-family: monospace; font-size: 0px; text-align: start; text-wrap: nowrap;&quot;&gt;%3CmxGraphModel%3E%3Croot%3E%3CmxCell%20id%3D%220%22%2F%3E%3CmxCell%20id%3D%221%22%20parent%3D%220%22%2F%3E%3CmxCell%20id%3D%222%22%20value%3D%22%22%20style%3D%22shape%3Dcard%3BwhiteSpace%3Dwrap%3Bhtml%3D1%3Bsize%3D12%3B%22%20vertex%3D%221%22%20parent%3D%221%22%3E%3CmxGeometry%20x%3D%22175%22%20y%3D%22548%22%20width%3D%2232%22%20height%3D%2241%22%20as%3D%22geometry%22%2F%3E%3C%2FmxCell%3E%3C%2Froot%3E%3C%2FmxGraphModel%3E&lt;/span&gt;" style="shape=card;whiteSpace=wrap;html=1;size=12;" parent="1" vertex="1">
          <mxGeometry x="344.5" y="544" width="32" height="41" as="geometry" />
        </mxCell>
        <mxCell id="IkbHQjkbGrgO6srP022f-9" value="&lt;span style=&quot;color: rgba(0, 0, 0, 0); font-family: monospace; font-size: 0px; text-align: start; text-wrap: nowrap;&quot;&gt;%3CmxGraphModel%3E%3Croot%3E%3CmxCell%20id%3D%220%22%2F%3E%3CmxCell%20id%3D%221%22%20parent%3D%220%22%2F%3E%3CmxCell%20id%3D%222%22%20value%3D%22%22%20style%3D%22shape%3Dcard%3BwhiteSpace%3Dwrap%3Bhtml%3D1%3Bsize%3D12%3B%22%20vertex%3D%221%22%20parent%3D%221%22%3E%3CmxGeometry%20x%3D%22175%22%20y%3D%22548%22%20width%3D%2232%22%20height%3D%2241%22%20as%3D%22geometry%22%2F%3E%3C%2FmxCell%3E%3C%2Froot%3E%3C%2FmxGraphModel%3E&lt;/span&gt;" style="shape=card;whiteSpace=wrap;html=1;size=12;" parent="1" vertex="1">
          <mxGeometry x="389.5" y="544" width="32" height="41" as="geometry" />
        </mxCell>
        <mxCell id="IkbHQjkbGrgO6srP022f-10" value="&lt;font style=&quot;font-size: 16px;&quot; face=&quot;Architects Daughter&quot;&gt;&lt;b&gt;document&lt;/b&gt;&lt;/font&gt;" style="text;html=1;align=center;verticalAlign=middle;whiteSpace=wrap;rounded=0;" parent="1" vertex="1">
          <mxGeometry x="358" y="601" width="60" height="30" as="geometry" />
        </mxCell>
        <mxCell id="IkbHQjkbGrgO6srP022f-14" value="data" style="text;html=1;align=center;verticalAlign=middle;whiteSpace=wrap;rounded=0;fontSize=16;fontFamily=Architects Daughter;fontSource=https%3A%2F%2Ffonts.googleapis.com%2Fcss%3Ffamily%3DArchitects%2BDaughter;" parent="1" vertex="1">
          <mxGeometry x="456" y="496.5" width="60" height="30" as="geometry" />
        </mxCell>
        <mxCell id="IkbHQjkbGrgO6srP022f-15" value="" style="shape=note;whiteSpace=wrap;html=1;backgroundOutline=1;darkOpacity=0.05;" parent="1" vertex="1">
          <mxGeometry x="194" y="465" width="116" height="136" as="geometry" />
        </mxCell>
        <mxCell id="IkbHQjkbGrgO6srP022f-16" value="&lt;span style=&quot;color: rgba(0, 0, 0, 0); font-family: monospace; font-size: 0px; text-align: start; text-wrap: nowrap;&quot;&gt;%3CmxGraphModel%3E%3Croot%3E%3CmxCell%20id%3D%220%22%2F%3E%3CmxCell%20id%3D%221%22%20parent%3D%220%22%2F%3E%3CmxCell%20id%3D%222%22%20value%3D%22%22%20style%3D%22shape%3Dcard%3BwhiteSpace%3Dwrap%3Bhtml%3D1%3Bsize%3D12%3B%22%20vertex%3D%221%22%20parent%3D%221%22%3E%3CmxGeometry%20x%3D%22175%22%20y%3D%22548%22%20width%3D%2232%22%20height%3D%2241%22%20as%3D%22geometry%22%2F%3E%3C%2FmxCell%3E%3C%2Froot%3E%3C%2FmxGraphModel%3E&lt;/span&gt;" style="shape=card;whiteSpace=wrap;html=1;size=12;" parent="1" vertex="1">
          <mxGeometry x="205.5" y="491" width="32" height="41" as="geometry" />
        </mxCell>
        <mxCell id="IkbHQjkbGrgO6srP022f-17" value="&lt;span style=&quot;color: rgba(0, 0, 0, 0); font-family: monospace; font-size: 0px; text-align: start; text-wrap: nowrap;&quot;&gt;%3CmxGraphModel%3E%3Croot%3E%3CmxCell%20id%3D%220%22%2F%3E%3CmxCell%20id%3D%221%22%20parent%3D%220%22%2F%3E%3CmxCell%20id%3D%222%22%20value%3D%22%22%20style%3D%22shape%3Dcard%3BwhiteSpace%3Dwrap%3Bhtml%3D1%3Bsize%3D12%3B%22%20vertex%3D%221%22%20parent%3D%221%22%3E%3CmxGeometry%20x%3D%22175%22%20y%3D%22548%22%20width%3D%2232%22%20height%3D%2241%22%20as%3D%22geometry%22%2F%3E%3C%2FmxCell%3E%3C%2Froot%3E%3C%2FmxGraphModel%3E&lt;/span&gt;" style="shape=card;whiteSpace=wrap;html=1;size=12;" parent="1" vertex="1">
          <mxGeometry x="250.5" y="493" width="32" height="41" as="geometry" />
        </mxCell>
        <mxCell id="IkbHQjkbGrgO6srP022f-18" value="&lt;span style=&quot;color: rgba(0, 0, 0, 0); font-family: monospace; font-size: 0px; text-align: start; text-wrap: nowrap;&quot;&gt;%3CmxGraphModel%3E%3Croot%3E%3CmxCell%20id%3D%220%22%2F%3E%3CmxCell%20id%3D%221%22%20parent%3D%220%22%2F%3E%3CmxCell%20id%3D%222%22%20value%3D%22%22%20style%3D%22shape%3Dcard%3BwhiteSpace%3Dwrap%3Bhtml%3D1%3Bsize%3D12%3B%22%20vertex%3D%221%22%20parent%3D%221%22%3E%3CmxGeometry%20x%3D%22175%22%20y%3D%22548%22%20width%3D%2232%22%20height%3D%2241%22%20as%3D%22geometry%22%2F%3E%3C%2FmxCell%3E%3C%2Froot%3E%3C%2FmxGraphModel%3E&lt;/span&gt;" style="shape=card;whiteSpace=wrap;html=1;size=12;" parent="1" vertex="1">
          <mxGeometry x="205.5" y="544" width="32" height="41" as="geometry" />
        </mxCell>
        <mxCell id="IkbHQjkbGrgO6srP022f-19" value="&lt;span style=&quot;color: rgba(0, 0, 0, 0); font-family: monospace; font-size: 0px; text-align: start; text-wrap: nowrap;&quot;&gt;%3CmxGraphModel%3E%3Croot%3E%3CmxCell%20id%3D%220%22%2F%3E%3CmxCell%20id%3D%221%22%20parent%3D%220%22%2F%3E%3CmxCell%20id%3D%222%22%20value%3D%22%22%20style%3D%22shape%3Dcard%3BwhiteSpace%3Dwrap%3Bhtml%3D1%3Bsize%3D12%3B%22%20vertex%3D%221%22%20parent%3D%221%22%3E%3CmxGeometry%20x%3D%22175%22%20y%3D%22548%22%20width%3D%2232%22%20height%3D%2241%22%20as%3D%22geometry%22%2F%3E%3C%2FmxCell%3E%3C%2Froot%3E%3C%2FmxGraphModel%3E&lt;/span&gt;" style="shape=card;whiteSpace=wrap;html=1;size=12;" parent="1" vertex="1">
          <mxGeometry x="250.5" y="544" width="32" height="41" as="geometry" />
        </mxCell>
        <mxCell id="IkbHQjkbGrgO6srP022f-20" value="&lt;font style=&quot;font-size: 16px;&quot; face=&quot;Architects Daughter&quot;&gt;&lt;b&gt;document&lt;/b&gt;&lt;/font&gt;" style="text;html=1;align=center;verticalAlign=middle;whiteSpace=wrap;rounded=0;" parent="1" vertex="1">
          <mxGeometry x="219" y="601" width="60" height="30" as="geometry" />
        </mxCell>
        <mxCell id="IkbHQjkbGrgO6srP022f-21" value="" style="shape=note;whiteSpace=wrap;html=1;backgroundOutline=1;darkOpacity=0.05;" parent="1" vertex="1">
          <mxGeometry x="333" y="640" width="116" height="136" as="geometry" />
        </mxCell>
        <mxCell id="IkbHQjkbGrgO6srP022f-22" value="&lt;span style=&quot;color: rgba(0, 0, 0, 0); font-family: monospace; font-size: 0px; text-align: start; text-wrap: nowrap;&quot;&gt;%3CmxGraphModel%3E%3Croot%3E%3CmxCell%20id%3D%220%22%2F%3E%3CmxCell%20id%3D%221%22%20parent%3D%220%22%2F%3E%3CmxCell%20id%3D%222%22%20value%3D%22%22%20style%3D%22shape%3Dcard%3BwhiteSpace%3Dwrap%3Bhtml%3D1%3Bsize%3D12%3B%22%20vertex%3D%221%22%20parent%3D%221%22%3E%3CmxGeometry%20x%3D%22175%22%20y%3D%22548%22%20width%3D%2232%22%20height%3D%2241%22%20as%3D%22geometry%22%2F%3E%3C%2FmxCell%3E%3C%2Froot%3E%3C%2FmxGraphModel%3E&lt;/span&gt;" style="shape=card;whiteSpace=wrap;html=1;size=12;" parent="1" vertex="1">
          <mxGeometry x="344.5" y="666" width="32" height="41" as="geometry" />
        </mxCell>
        <mxCell id="IkbHQjkbGrgO6srP022f-23" value="&lt;span style=&quot;color: rgba(0, 0, 0, 0); font-family: monospace; font-size: 0px; text-align: start; text-wrap: nowrap;&quot;&gt;%3CmxGraphModel%3E%3Croot%3E%3CmxCell%20id%3D%220%22%2F%3E%3CmxCell%20id%3D%221%22%20parent%3D%220%22%2F%3E%3CmxCell%20id%3D%222%22%20value%3D%22%22%20style%3D%22shape%3Dcard%3BwhiteSpace%3Dwrap%3Bhtml%3D1%3Bsize%3D12%3B%22%20vertex%3D%221%22%20parent%3D%221%22%3E%3CmxGeometry%20x%3D%22175%22%20y%3D%22548%22%20width%3D%2232%22%20height%3D%2241%22%20as%3D%22geometry%22%2F%3E%3C%2FmxCell%3E%3C%2Froot%3E%3C%2FmxGraphModel%3E&lt;/span&gt;" style="shape=card;whiteSpace=wrap;html=1;size=12;" parent="1" vertex="1">
          <mxGeometry x="389.5" y="668" width="32" height="41" as="geometry" />
        </mxCell>
        <mxCell id="IkbHQjkbGrgO6srP022f-24" value="&lt;span style=&quot;color: rgba(0, 0, 0, 0); font-family: monospace; font-size: 0px; text-align: start; text-wrap: nowrap;&quot;&gt;%3CmxGraphModel%3E%3Croot%3E%3CmxCell%20id%3D%220%22%2F%3E%3CmxCell%20id%3D%221%22%20parent%3D%220%22%2F%3E%3CmxCell%20id%3D%222%22%20value%3D%22%22%20style%3D%22shape%3Dcard%3BwhiteSpace%3Dwrap%3Bhtml%3D1%3Bsize%3D12%3B%22%20vertex%3D%221%22%20parent%3D%221%22%3E%3CmxGeometry%20x%3D%22175%22%20y%3D%22548%22%20width%3D%2232%22%20height%3D%2241%22%20as%3D%22geometry%22%2F%3E%3C%2FmxCell%3E%3C%2Froot%3E%3C%2FmxGraphModel%3E&lt;/span&gt;" style="shape=card;whiteSpace=wrap;html=1;size=12;" parent="1" vertex="1">
          <mxGeometry x="344.5" y="719" width="32" height="41" as="geometry" />
        </mxCell>
        <mxCell id="IkbHQjkbGrgO6srP022f-25" value="&lt;span style=&quot;color: rgba(0, 0, 0, 0); font-family: monospace; font-size: 0px; text-align: start; text-wrap: nowrap;&quot;&gt;%3CmxGraphModel%3E%3Croot%3E%3CmxCell%20id%3D%220%22%2F%3E%3CmxCell%20id%3D%221%22%20parent%3D%220%22%2F%3E%3CmxCell%20id%3D%222%22%20value%3D%22%22%20style%3D%22shape%3Dcard%3BwhiteSpace%3Dwrap%3Bhtml%3D1%3Bsize%3D12%3B%22%20vertex%3D%221%22%20parent%3D%221%22%3E%3CmxGeometry%20x%3D%22175%22%20y%3D%22548%22%20width%3D%2232%22%20height%3D%2241%22%20as%3D%22geometry%22%2F%3E%3C%2FmxCell%3E%3C%2Froot%3E%3C%2FmxGraphModel%3E&lt;/span&gt;" style="shape=card;whiteSpace=wrap;html=1;size=12;" parent="1" vertex="1">
          <mxGeometry x="389.5" y="719" width="32" height="41" as="geometry" />
        </mxCell>
        <mxCell id="IkbHQjkbGrgO6srP022f-26" value="&lt;font style=&quot;font-size: 16px;&quot; face=&quot;Architects Daughter&quot;&gt;&lt;b&gt;document&lt;/b&gt;&lt;/font&gt;" style="text;html=1;align=center;verticalAlign=middle;whiteSpace=wrap;rounded=0;" parent="1" vertex="1">
          <mxGeometry x="358" y="776" width="60" height="30" as="geometry" />
        </mxCell>
        <mxCell id="IkbHQjkbGrgO6srP022f-27" value="" style="shape=note;whiteSpace=wrap;html=1;backgroundOutline=1;darkOpacity=0.05;" parent="1" vertex="1">
          <mxGeometry x="194" y="640" width="116" height="136" as="geometry" />
        </mxCell>
        <mxCell id="IkbHQjkbGrgO6srP022f-28" value="&lt;span style=&quot;color: rgba(0, 0, 0, 0); font-family: monospace; font-size: 0px; text-align: start; text-wrap: nowrap;&quot;&gt;%3CmxGraphModel%3E%3Croot%3E%3CmxCell%20id%3D%220%22%2F%3E%3CmxCell%20id%3D%221%22%20parent%3D%220%22%2F%3E%3CmxCell%20id%3D%222%22%20value%3D%22%22%20style%3D%22shape%3Dcard%3BwhiteSpace%3Dwrap%3Bhtml%3D1%3Bsize%3D12%3B%22%20vertex%3D%221%22%20parent%3D%221%22%3E%3CmxGeometry%20x%3D%22175%22%20y%3D%22548%22%20width%3D%2232%22%20height%3D%2241%22%20as%3D%22geometry%22%2F%3E%3C%2FmxCell%3E%3C%2Froot%3E%3C%2FmxGraphModel%3E&lt;/span&gt;" style="shape=card;whiteSpace=wrap;html=1;size=12;" parent="1" vertex="1">
          <mxGeometry x="205.5" y="666" width="32" height="41" as="geometry" />
        </mxCell>
        <mxCell id="IkbHQjkbGrgO6srP022f-29" value="&lt;span style=&quot;color: rgba(0, 0, 0, 0); font-family: monospace; font-size: 0px; text-align: start; text-wrap: nowrap;&quot;&gt;%3CmxGraphModel%3E%3Croot%3E%3CmxCell%20id%3D%220%22%2F%3E%3CmxCell%20id%3D%221%22%20parent%3D%220%22%2F%3E%3CmxCell%20id%3D%222%22%20value%3D%22%22%20style%3D%22shape%3Dcard%3BwhiteSpace%3Dwrap%3Bhtml%3D1%3Bsize%3D12%3B%22%20vertex%3D%221%22%20parent%3D%221%22%3E%3CmxGeometry%20x%3D%22175%22%20y%3D%22548%22%20width%3D%2232%22%20height%3D%2241%22%20as%3D%22geometry%22%2F%3E%3C%2FmxCell%3E%3C%2Froot%3E%3C%2FmxGraphModel%3E&lt;/span&gt;" style="shape=card;whiteSpace=wrap;html=1;size=12;" parent="1" vertex="1">
          <mxGeometry x="250.5" y="668" width="32" height="41" as="geometry" />
        </mxCell>
        <mxCell id="IkbHQjkbGrgO6srP022f-30" value="&lt;span style=&quot;color: rgba(0, 0, 0, 0); font-family: monospace; font-size: 0px; text-align: start; text-wrap: nowrap;&quot;&gt;%3CmxGraphModel%3E%3Croot%3E%3CmxCell%20id%3D%220%22%2F%3E%3CmxCell%20id%3D%221%22%20parent%3D%220%22%2F%3E%3CmxCell%20id%3D%222%22%20value%3D%22%22%20style%3D%22shape%3Dcard%3BwhiteSpace%3Dwrap%3Bhtml%3D1%3Bsize%3D12%3B%22%20vertex%3D%221%22%20parent%3D%221%22%3E%3CmxGeometry%20x%3D%22175%22%20y%3D%22548%22%20width%3D%2232%22%20height%3D%2241%22%20as%3D%22geometry%22%2F%3E%3C%2FmxCell%3E%3C%2Froot%3E%3C%2FmxGraphModel%3E&lt;/span&gt;" style="shape=card;whiteSpace=wrap;html=1;size=12;" parent="1" vertex="1">
          <mxGeometry x="205.5" y="719" width="32" height="41" as="geometry" />
        </mxCell>
        <mxCell id="IkbHQjkbGrgO6srP022f-31" value="&lt;span style=&quot;color: rgba(0, 0, 0, 0); font-family: monospace; font-size: 0px; text-align: start; text-wrap: nowrap;&quot;&gt;%3CmxGraphModel%3E%3Croot%3E%3CmxCell%20id%3D%220%22%2F%3E%3CmxCell%20id%3D%221%22%20parent%3D%220%22%2F%3E%3CmxCell%20id%3D%222%22%20value%3D%22%22%20style%3D%22shape%3Dcard%3BwhiteSpace%3Dwrap%3Bhtml%3D1%3Bsize%3D12%3B%22%20vertex%3D%221%22%20parent%3D%221%22%3E%3CmxGeometry%20x%3D%22175%22%20y%3D%22548%22%20width%3D%2232%22%20height%3D%2241%22%20as%3D%22geometry%22%2F%3E%3C%2FmxCell%3E%3C%2Froot%3E%3C%2FmxGraphModel%3E&lt;/span&gt;" style="shape=card;whiteSpace=wrap;html=1;size=12;" parent="1" vertex="1">
          <mxGeometry x="250.5" y="719" width="32" height="41" as="geometry" />
        </mxCell>
        <mxCell id="IkbHQjkbGrgO6srP022f-32" value="&lt;font style=&quot;font-size: 16px;&quot; face=&quot;Architects Daughter&quot;&gt;&lt;b&gt;document&lt;/b&gt;&lt;/font&gt;" style="text;html=1;align=center;verticalAlign=middle;whiteSpace=wrap;rounded=0;" parent="1" vertex="1">
          <mxGeometry x="219" y="776" width="60" height="30" as="geometry" />
        </mxCell>
        <mxCell id="IkbHQjkbGrgO6srP022f-33" value="&lt;font style=&quot;font-size: 18px;&quot; data-font-src=&quot;https://fonts.googleapis.com/css?family=Architects+Daughter&quot; face=&quot;Architects Daughter&quot;&gt;Collection&lt;/font&gt;" style="swimlane;whiteSpace=wrap;html=1;swimlaneFillColor=none;fillStyle=solid;fillColor=#f5f5f5;fontColor=#333333;strokeColor=#666666;" parent="1" vertex="1">
          <mxGeometry x="137" y="406" width="399" height="440" as="geometry" />
        </mxCell>
        <mxCell id="limKf-Zs-EKyVXmpjK5a-4" value="" style="shape=stencil(lVnZchs3EPwavk7hPp4d5z9cZTliRZFcspzj79MIg+XOYLdVeqPEaQJz9Ry4xE8/Hr98f7gE9+Pt9eX3h7+uX98eL/GXSwjX58eH1+sbPl3i50v89O3l9eG315efz19vf3//MiTHpz9e/hy/8PcN56WHAQrun9s/ShNf//vPrzf5p+vzTj5Iq0q+Omn+XD5JyVo+Ss3n8lmq+f0ikdwHt3VKvrn5C4fyXaKRD1Tee6ldA3DFRABJQtKAKq0QQJYcNaBJiwRQ5tcboHMdmgStQ4eRAgF0adprHWZwJCq8FK8BgZ4Q4vTqBojiGwFkcQsgMkCxkQ1AZldqNlQHgJg1OgnOAhzxdPTSnLVSJMkT43KCl0RCIyapxXo6E8fFYv2AWKJKV+kmH2A3dqUuRfsB+cBiKTnpOpYaLkkcl2BEkw8IFsIxKUoxOkTpDFAkGCt5CYz1qs0H0JInSmd8ra9UKw3v7CVrmgFRBgZI4vWVKg/vnCXpWKpBEgM0cfpKBbzErtSnirvi879nDgEF0a91KEUcCY2yJFAJ0okfSpKs/YAzIwMUG94wQyL1ASomfQIMzYKvLGQMV2YSfNXPCr4B4rTbMSAuADer3jEgSdehgYCvhARGbGo/pEzbBkR/0qGReIrWPm2yAZxEQsYjg3W0gtqY49pSssC2jPkarGQA6LYYoMyaOQGBdwKDerUfUCYDiVaQe9dmDVtNOm6Xlv7QV1rYUQKbPsHH+RPHgDyZdAM4Gt69itdKR+poyEdj1cmEZ/KGuz2t6n2piG7Wo2P5jR/u8o65oE3GusuzUtK7LYduKnQmX4zHJkOdyZv6HKSwhtht+t0d1glgHKANhBBhDuizId84e1auM/mkA6JSeoS8uT8KHZNvkrORZ0kJeWdq/6TX0wC18qw/GglQjX0is3+1vUgWz3/fa30j55QqQcsH2qNCPmv7e9oa9W3euidA5gkZbALThG9zgt3JM/t0a08QBE+wXI2+nsdzs/YMTN9uCSty+y9FI9Gq9GF5hKO+PwZWeqFkmwNoTCkr2NEOKeBJN4GyZ5rlwFtZFFZTxTC7sZkcQ5AFVNpdY6ZJWgc0OI5daRt3N0CgvNuW8RRNGlMaPZdZBqXG+0Z8rZUejSY7oS7NMi82NdvilwtNBvS+wQD63DQcA5zNfkwIjaT/mGnM0JJoeGOksPWszGHvGLBskHBmZCPFEhpjZmAn+MlYu+GRDi0bhW6APHvV41kQJK9zGr5nezb41WulEY6JjdhxRs5uiE9sPA12aEFKeRJLqdvwRtJ6kg9IF7tXKJQqR0Jqs45dIdEhJbvvfGchNDjC7Ao95aXkbfsItmXROmjLbPIS7S/i0jD3TFM0lpmQG6DQji2iwVwAbFIDuZvBazQdTIdgeyR0EYUvF63SfRaA0/WlBuwa77MNaev2iP7ODtZ9CLDuL1EySGyMTqctWpMM8n22snu7suV5tfTd+UDriy3UiA26bU+LWXkZxYCcTTAl/sSwEBOm7kI87bcqu8tRRkzdLhcHa5DgazalBy2x8jA3wDveY5yR7QTQEmdi23GD6ulzhN0r1kpfqfwcSHfVje0snO1KaqAednbFAXmmr5v77l09T0TfZSJHV1OIvtuAs9vsNpIDzr7KQZ7f3+zixpaUdAtuvoJs8nUuJU7kDV1DnvvLvopWulz3Nt6GPGMhu1ovlb5yepsvpdJF+Udfdd+Xx4f7E/K369PT7QV6/719csa/bs/V8fO/);lineShape=1;strokeColor=default;" vertex="1" parent="1">
          <mxGeometry x="419.89162865889557" y="522.4014735703802" width="52.67664674398789" height="18.321583605664525" as="geometry" />
        </mxCell>
        <mxCell id="limKf-Zs-EKyVXmpjK5a-5" value="" style="shape=stencil(lVjbUhsxDP2avGpsyzc9U/ofzBBKppQwgd7+vtpmvMTy7tnkLQSfWJejI8k7vnt/fnjb74J7/zgdv+9/Hx4/nnf8ZRfC4fV5fzp86Kcd3+/47ul42n87HX++Pp7/fnuYTk6ffhx/Tb/w54xjqmkCBff3/EWm6v5/8fV8/OXwenG8kNTuuH4R1o/7SDF254UE/HxwFEN33jsKCQAKsVgAgxs4UuLhhrIOiJ6KGwARACrVPABAkFIi7k2qJH79fPbt/s+cFeByLuT6GEUKKMeBUs+JQC6D88qB3h5HDvx+TeTYnEecq4VKNfZ7YE+VxoDPeKIMizKmt98HGCBhcn2AfKEMKCGJUp8BdQGxVDLlvg7UB+SzFEq9D6xJQ05Xin0SOJMDLJUhqqy1LBBQ+jqIWnv4Bumd1lIqKKxi1SgFqkiO3MzMGaF6xzchsoN3yByVGRAhvRcAtRH+Sre1YgsQyQWAKsaGD6WvIAclZgEQKSP6qcW+bwxKPyB6CpA+DxKxD0yxL1L9JiGTtCSNSQH7oLpdLcAjk7IVVvEtM2tVbXqP3hCQDNQhrKGJ81riYrVRElAQU6bNDYn8TeTTMEQMyL1uTGFA1BBbolMYkDLV1s9mgFBCeci2w13owho3ih0CNhCxtZBrjeKBHBtua9uKNwVWi7TvEVupC82Aa8nBFMwNG/RjK5ZbBE8DOTZKKLdGe32RmvFtSwa09Q4mQaGRZvG1UiZUTZHGlspr25zgcWAFcRObtppKaAJ/bZ8LtiKm1osyMcf9YhxA+4kCzJgVhTx22vU3xICj5FvBzGOWTn5oOh7nMgfJoeN07E0K8060DFBl6hXc19bIlgHBFqmPcD6uzvpQqIKSK3FoQo3wyxuQDEufb/q8DIhWBDxDi3QoNOO0T5RBUJVoxewQGaZNR1sxJpW2LK/uoX2eNW0OmBQThSHPSAN0Nc4yANDyXVuxXPiAdgieN4ZLAIiScl94AADqhUG9JwB6omArYwqo6AbX6vcCAMU42/4wZRqQT9fVZAAZmqQXGCrhaT0MCzK3G5cNsqOMng+gPn2j2cUCjiLkBlYEqJGaAUNsTwz8HVqb1xuBXIytcMN8Y06Fj2jO9pza8GvB7I8XaLu30/b8WrRGhf44fi9kW/D4qerG18jN4/rh8+Hz6fDycn43vfy/fSjVr86PrHz/Dw==);lineShape=1;strokeColor=default;" vertex="1" parent="1">
          <mxGeometry x="458.50802007713446" y="520.443990178317" width="19.22770555733035" height="17.36346433876712" as="geometry" />
        </mxCell>
      </root>
    </mxGraphModel>
  </diagram>
</mxfile>
